<svg width="40" height="40" viewBox="0 0 87 77" fill="none" xmlns="http://www.w3.org/2000/svg">
<path d="M43.5422 45.8323C55.4691 45.8323 65.0969 35.5964 65.0969 22.9161C65.0969 10.2359 55.4691 0 43.5422 0C31.6153 0 21.9875 10.2359 21.9875 22.9161C21.9875 35.5964 31.6153 45.8323 43.5422 45.8323ZM43.5422 6.87484C51.8767 6.87484 58.6305 14.0552 58.6305 22.9161C58.6305 31.777 51.8767 38.9574 43.5422 38.9574C35.2077 38.9574 28.4539 31.777 28.4539 22.9161C28.4539 14.0552 35.2077 6.87484 43.5422 6.87484Z" fill="black"/>
<path d="M85.9331 70.8873C74.1499 60.3459 59.2053 54.5405 43.5422 54.5405C27.8791 54.5405 12.9345 60.3459 1.15127 70.8873C-0.142017 72.1095 -0.429413 74.2483 0.720171 75.7761C1.86976 77.1511 3.88153 77.4566 5.31851 76.2344C15.9522 66.6096 29.4598 61.4153 43.5422 61.4153C57.6246 61.4153 71.1322 66.6096 81.6222 76.0816C82.197 76.6927 82.9155 76.8455 83.7776 76.8455C84.6398 76.8455 85.6457 76.3872 86.2205 75.6233C87.3701 74.2483 87.2264 72.1095 85.9331 70.8873Z" fill="black"/>
</svg>
